<mxfile host="Electron" agent="Mozilla/5.0 (Windows NT 10.0; Win64; x64) AppleWebKit/537.36 (KHTML, like Gecko) draw.io/28.1.2 Chrome/138.0.7204.243 Electron/37.4.0 Safari/537.36" version="28.1.2">
  <diagram name="Página-1" id="NHp910RCLfkg16YRV3e-">
    <mxGraphModel dx="4593" dy="1529" grid="1" gridSize="10" guides="1" tooltips="1" connect="1" arrows="1" fold="1" page="0" pageScale="1" pageWidth="827" pageHeight="1169" math="0" shadow="0">
      <root>
        <mxCell id="0" />
        <mxCell id="1" parent="0" />
        <mxCell id="pzdc9UByRqvHz5rYgVLP-1" value="Enunciado 4 Modelo Entidad Interrelación&lt;br&gt;Se desea recoger en una base de datos información acerca del funcionamiento interno de una comisaría de policía: Vamos a suponer los siguientes supuestos: En la comisaría trabajan una serie de&amp;nbsp;&lt;div&gt;&lt;span style=&quot;background-color: rgb(0, 0, 204);&quot;&gt;policías (DNI, nombre, categoría)&amp;nbsp;&lt;/span&gt;&lt;/div&gt;&lt;div&gt;que pueden desempeñar&amp;nbsp;&lt;span style=&quot;background-color: transparent; color: light-dark(rgb(0, 0, 0), rgb(255, 255, 255));&quot;&gt;funciones distintas: administrativos, agentes, etc.&lt;/span&gt;&lt;/div&gt;&lt;div&gt;&lt;span style=&quot;background-color: transparent; color: light-dark(rgb(0, 0, 0), rgb(255, 255, 255));&quot;&gt;Cada policía tiene un único&amp;nbsp;&lt;/span&gt;&lt;/div&gt;&lt;div&gt;&lt;span style=&quot;background-color: transparent; color: light-dark(rgb(0, 0, 0), rgb(255, 255, 255));&quot;&gt;jefe, aunque un policía puede ser jefe de varios.&lt;/span&gt;&lt;/div&gt;&lt;div&gt;En la comisaría existe un arsenal de&amp;nbsp;&lt;/div&gt;&lt;div&gt;&lt;span style=&quot;background-color: rgb(255, 0, 0);&quot;&gt;armas. Cada arma está identificada por un código único, pertenece a una clase y tiene un nombre determinado.&lt;br&gt;&lt;/span&gt;Cada policía puede utilizar una o varias armas en un momento determinado. Es importante&lt;br&gt;conocer el grado de habilidad de cada policía con cada una de las armas que utiliza.&lt;br&gt;&lt;span style=&quot;background-color: rgb(0, 255, 0);&quot;&gt;Un delincuente (DNI, nombre, teléfono)&lt;/span&gt; es arrestado por uno o varios policías.&lt;br&gt;A cada delincuente que permanezca en la comisaría se le encierra en un&amp;nbsp;&lt;/div&gt;&lt;div&gt;&lt;span style=&quot;background-color: rgb(204, 0, 102);&quot;&gt;calabozo (Código, ubicación).&lt;/span&gt;&lt;span style=&quot;background-color: light-dark(#ffffff, var(--ge-dark-color, #121212));&quot;&gt;&amp;nbsp;&lt;/span&gt;&lt;/div&gt;&lt;div&gt;En el calabozo pueden estar encerrados varios delincuentes.&lt;br&gt;Los delincuentes están involucrados en&lt;/div&gt;&lt;div&gt;&lt;font style=&quot;color: rgb(255, 255, 51);&quot;&gt;c&lt;span style=&quot;background-color: transparent;&quot;&gt;asos (Código de caso y juzgado que lo instruye) ;&lt;/span&gt;&lt;/font&gt;&lt;/div&gt;&lt;div&gt;interesa saber cuál es el principal cargo que se le imputa a un delincuente en cada caso en que&lt;br&gt;está involucrado.&lt;br&gt;Uno o varios policías investigan cada uno de los casos.&lt;/div&gt;" style="text;whiteSpace=wrap;html=1;fontFamily=Architects Daughter;fontSource=https%3A%2F%2Ffonts.googleapis.com%2Fcss%3Ffamily%3DArchitects%2BDaughter;" vertex="1" parent="1">
          <mxGeometry x="-1720" y="150" width="690" height="290" as="geometry" />
        </mxCell>
        <mxCell id="pzdc9UByRqvHz5rYgVLP-36" value="" style="edgeStyle=orthogonalEdgeStyle;rounded=0;sketch=1;hachureGap=4;jiggle=2;curveFitting=1;orthogonalLoop=1;jettySize=auto;html=1;fontFamily=Architects Daughter;fontSource=https%3A%2F%2Ffonts.googleapis.com%2Fcss%3Ffamily%3DArchitects%2BDaughter;entryX=1;entryY=0.5;entryDx=0;entryDy=0;" edge="1" parent="1" source="pzdc9UByRqvHz5rYgVLP-2" target="pzdc9UByRqvHz5rYgVLP-35">
          <mxGeometry relative="1" as="geometry">
            <Array as="points">
              <mxPoint x="-220" y="390" />
            </Array>
          </mxGeometry>
        </mxCell>
        <mxCell id="pzdc9UByRqvHz5rYgVLP-83" value="n : n" style="edgeLabel;html=1;align=center;verticalAlign=middle;resizable=0;points=[];sketch=1;hachureGap=4;jiggle=2;curveFitting=1;fontFamily=Architects Daughter;fontSource=https%3A%2F%2Ffonts.googleapis.com%2Fcss%3Ffamily%3DArchitects%2BDaughter;" vertex="1" connectable="0" parent="pzdc9UByRqvHz5rYgVLP-36">
          <mxGeometry x="0.0406" relative="1" as="geometry">
            <mxPoint as="offset" />
          </mxGeometry>
        </mxCell>
        <mxCell id="pzdc9UByRqvHz5rYgVLP-47" value="" style="edgeStyle=orthogonalEdgeStyle;rounded=0;sketch=1;hachureGap=4;jiggle=2;curveFitting=1;orthogonalLoop=1;jettySize=auto;html=1;fontFamily=Architects Daughter;fontSource=https%3A%2F%2Ffonts.googleapis.com%2Fcss%3Ffamily%3DArchitects%2BDaughter;" edge="1" parent="1" source="pzdc9UByRqvHz5rYgVLP-2" target="pzdc9UByRqvHz5rYgVLP-46">
          <mxGeometry relative="1" as="geometry">
            <Array as="points">
              <mxPoint x="30" y="390" />
            </Array>
          </mxGeometry>
        </mxCell>
        <mxCell id="pzdc9UByRqvHz5rYgVLP-76" value="&amp;nbsp;1 : 1&amp;nbsp;" style="edgeLabel;html=1;align=center;verticalAlign=middle;resizable=0;points=[];sketch=1;hachureGap=4;jiggle=2;curveFitting=1;fontFamily=Architects Daughter;fontSource=https%3A%2F%2Ffonts.googleapis.com%2Fcss%3Ffamily%3DArchitects%2BDaughter;" vertex="1" connectable="0" parent="pzdc9UByRqvHz5rYgVLP-47">
          <mxGeometry x="-0.3371" relative="1" as="geometry">
            <mxPoint as="offset" />
          </mxGeometry>
        </mxCell>
        <mxCell id="pzdc9UByRqvHz5rYgVLP-64" value="" style="edgeStyle=orthogonalEdgeStyle;rounded=0;sketch=1;hachureGap=4;jiggle=2;curveFitting=1;orthogonalLoop=1;jettySize=auto;html=1;fontFamily=Architects Daughter;fontSource=https%3A%2F%2Ffonts.googleapis.com%2Fcss%3Ffamily%3DArchitects%2BDaughter;" edge="1" parent="1" source="pzdc9UByRqvHz5rYgVLP-2" target="pzdc9UByRqvHz5rYgVLP-63">
          <mxGeometry relative="1" as="geometry" />
        </mxCell>
        <mxCell id="pzdc9UByRqvHz5rYgVLP-80" value="0 : 1&amp;nbsp;" style="edgeLabel;html=1;align=center;verticalAlign=middle;resizable=0;points=[];sketch=1;hachureGap=4;jiggle=2;curveFitting=1;fontFamily=Architects Daughter;fontSource=https%3A%2F%2Ffonts.googleapis.com%2Fcss%3Ffamily%3DArchitects%2BDaughter;" vertex="1" connectable="0" parent="pzdc9UByRqvHz5rYgVLP-64">
          <mxGeometry x="-0.0271" relative="1" as="geometry">
            <mxPoint as="offset" />
          </mxGeometry>
        </mxCell>
        <mxCell id="pzdc9UByRqvHz5rYgVLP-71" style="edgeStyle=orthogonalEdgeStyle;rounded=0;sketch=1;hachureGap=4;jiggle=2;curveFitting=1;orthogonalLoop=1;jettySize=auto;html=1;entryX=0.5;entryY=0;entryDx=0;entryDy=0;fontFamily=Architects Daughter;fontSource=https%3A%2F%2Ffonts.googleapis.com%2Fcss%3Ffamily%3DArchitects%2BDaughter;" edge="1" parent="1" target="pzdc9UByRqvHz5rYgVLP-70">
          <mxGeometry relative="1" as="geometry">
            <mxPoint x="-150" y="345.0226315789473" as="sourcePoint" />
            <mxPoint x="-490" y="394.97" as="targetPoint" />
          </mxGeometry>
        </mxCell>
        <mxCell id="pzdc9UByRqvHz5rYgVLP-92" value="&amp;nbsp;1 : n&amp;nbsp;" style="edgeLabel;html=1;align=center;verticalAlign=middle;resizable=0;points=[];sketch=1;hachureGap=4;jiggle=2;curveFitting=1;fontFamily=Architects Daughter;fontSource=https%3A%2F%2Ffonts.googleapis.com%2Fcss%3Ffamily%3DArchitects%2BDaughter;" vertex="1" connectable="0" parent="pzdc9UByRqvHz5rYgVLP-71">
          <mxGeometry x="0.0618" y="-1" relative="1" as="geometry">
            <mxPoint as="offset" />
          </mxGeometry>
        </mxCell>
        <mxCell id="pzdc9UByRqvHz5rYgVLP-2" value="Policia" style="rounded=0;whiteSpace=wrap;html=1;sketch=1;hachureGap=4;jiggle=2;curveFitting=1;fontFamily=Architects Daughter;fontSource=https%3A%2F%2Ffonts.googleapis.com%2Fcss%3Ffamily%3DArchitects%2BDaughter;" vertex="1" parent="1">
          <mxGeometry x="-150" y="340" width="120" height="60" as="geometry" />
        </mxCell>
        <mxCell id="pzdc9UByRqvHz5rYgVLP-3" value="DNI" style="ellipse;whiteSpace=wrap;html=1;sketch=1;hachureGap=4;jiggle=2;curveFitting=1;fontFamily=Architects Daughter;fontSource=https%3A%2F%2Ffonts.googleapis.com%2Fcss%3Ffamily%3DArchitects%2BDaughter;fillColor=#60a917;fontColor=#ffffff;strokeColor=#2D7600;" vertex="1" parent="1">
          <mxGeometry x="-230" y="180" width="80" height="40" as="geometry" />
        </mxCell>
        <mxCell id="pzdc9UByRqvHz5rYgVLP-4" value="" style="endArrow=none;html=1;rounded=0;sketch=1;hachureGap=4;jiggle=2;curveFitting=1;fontFamily=Architects Daughter;fontSource=https%3A%2F%2Ffonts.googleapis.com%2Fcss%3Ffamily%3DArchitects%2BDaughter;exitX=0.5;exitY=1;exitDx=0;exitDy=0;entryX=0.333;entryY=-0.05;entryDx=0;entryDy=0;entryPerimeter=0;" edge="1" parent="1" source="pzdc9UByRqvHz5rYgVLP-3" target="pzdc9UByRqvHz5rYgVLP-2">
          <mxGeometry width="50" height="50" relative="1" as="geometry">
            <mxPoint x="-170" y="300" as="sourcePoint" />
            <mxPoint x="-120" y="250" as="targetPoint" />
          </mxGeometry>
        </mxCell>
        <mxCell id="pzdc9UByRqvHz5rYgVLP-5" value="nombre" style="ellipse;whiteSpace=wrap;html=1;sketch=1;hachureGap=4;jiggle=2;curveFitting=1;fontFamily=Architects Daughter;fontSource=https%3A%2F%2Ffonts.googleapis.com%2Fcss%3Ffamily%3DArchitects%2BDaughter;" vertex="1" parent="1">
          <mxGeometry x="-150" y="170" width="70" height="40" as="geometry" />
        </mxCell>
        <mxCell id="pzdc9UByRqvHz5rYgVLP-6" value="" style="endArrow=none;html=1;rounded=0;sketch=1;hachureGap=4;jiggle=2;curveFitting=1;fontFamily=Architects Daughter;fontSource=https%3A%2F%2Ffonts.googleapis.com%2Fcss%3Ffamily%3DArchitects%2BDaughter;exitX=0.581;exitY=0.971;exitDx=0;exitDy=0;entryX=0.413;entryY=0.036;entryDx=0;entryDy=0;entryPerimeter=0;exitPerimeter=0;" edge="1" parent="1" source="pzdc9UByRqvHz5rYgVLP-5" target="pzdc9UByRqvHz5rYgVLP-2">
          <mxGeometry width="50" height="50" relative="1" as="geometry">
            <mxPoint x="-190" y="370" as="sourcePoint" />
            <mxPoint x="-102" y="384" as="targetPoint" />
          </mxGeometry>
        </mxCell>
        <mxCell id="pzdc9UByRqvHz5rYgVLP-7" value="categoria" style="ellipse;whiteSpace=wrap;html=1;sketch=1;hachureGap=4;jiggle=2;curveFitting=1;fontFamily=Architects Daughter;fontSource=https%3A%2F%2Ffonts.googleapis.com%2Fcss%3Ffamily%3DArchitects%2BDaughter;" vertex="1" parent="1">
          <mxGeometry x="-90" y="170" width="70" height="40" as="geometry" />
        </mxCell>
        <mxCell id="pzdc9UByRqvHz5rYgVLP-8" value="" style="endArrow=none;html=1;rounded=0;sketch=1;hachureGap=4;jiggle=2;curveFitting=1;fontFamily=Architects Daughter;fontSource=https%3A%2F%2Ffonts.googleapis.com%2Fcss%3Ffamily%3DArchitects%2BDaughter;exitX=0.5;exitY=1;exitDx=0;exitDy=0;entryX=0.438;entryY=0.036;entryDx=0;entryDy=0;entryPerimeter=0;" edge="1" parent="1" source="pzdc9UByRqvHz5rYgVLP-7" target="pzdc9UByRqvHz5rYgVLP-2">
          <mxGeometry width="50" height="50" relative="1" as="geometry">
            <mxPoint x="-140" y="414" as="sourcePoint" />
            <mxPoint x="-53" y="400" as="targetPoint" />
          </mxGeometry>
        </mxCell>
        <mxCell id="pzdc9UByRqvHz5rYgVLP-13" value="funcion" style="ellipse;whiteSpace=wrap;html=1;sketch=1;hachureGap=4;jiggle=2;curveFitting=1;fontFamily=Architects Daughter;fontSource=https%3A%2F%2Ffonts.googleapis.com%2Fcss%3Ffamily%3DArchitects%2BDaughter;" vertex="1" parent="1">
          <mxGeometry x="-20" y="180" width="80" height="40" as="geometry" />
        </mxCell>
        <mxCell id="pzdc9UByRqvHz5rYgVLP-14" value="" style="endArrow=none;html=1;rounded=0;sketch=1;hachureGap=4;jiggle=2;curveFitting=1;fontFamily=Architects Daughter;fontSource=https%3A%2F%2Ffonts.googleapis.com%2Fcss%3Ffamily%3DArchitects%2BDaughter;exitX=0.439;exitY=0.999;exitDx=0;exitDy=0;entryX=0.5;entryY=0;entryDx=0;entryDy=0;exitPerimeter=0;" edge="1" parent="1" source="pzdc9UByRqvHz5rYgVLP-13" target="pzdc9UByRqvHz5rYgVLP-2">
          <mxGeometry width="50" height="50" relative="1" as="geometry">
            <mxPoint x="-150" y="455" as="sourcePoint" />
            <mxPoint x="-70" y="420" as="targetPoint" />
          </mxGeometry>
        </mxCell>
        <mxCell id="pzdc9UByRqvHz5rYgVLP-18" value="Arma" style="rounded=0;whiteSpace=wrap;html=1;sketch=1;hachureGap=4;jiggle=2;curveFitting=1;fontFamily=Architects Daughter;fontSource=https%3A%2F%2Ffonts.googleapis.com%2Fcss%3Ffamily%3DArchitects%2BDaughter;" vertex="1" parent="1">
          <mxGeometry x="385" y="340" width="120" height="60" as="geometry" />
        </mxCell>
        <mxCell id="pzdc9UByRqvHz5rYgVLP-19" value="codigo" style="ellipse;whiteSpace=wrap;html=1;sketch=1;hachureGap=4;jiggle=2;curveFitting=1;fontFamily=Architects Daughter;fontSource=https%3A%2F%2Ffonts.googleapis.com%2Fcss%3Ffamily%3DArchitects%2BDaughter;fillColor=#60a917;fontColor=#ffffff;strokeColor=#2D7600;" vertex="1" parent="1">
          <mxGeometry x="330" y="230" width="80" height="40" as="geometry" />
        </mxCell>
        <mxCell id="pzdc9UByRqvHz5rYgVLP-20" value="clase" style="ellipse;whiteSpace=wrap;html=1;sketch=1;hachureGap=4;jiggle=2;curveFitting=1;fontFamily=Architects Daughter;fontSource=https%3A%2F%2Ffonts.googleapis.com%2Fcss%3Ffamily%3DArchitects%2BDaughter;" vertex="1" parent="1">
          <mxGeometry x="410" y="230" width="70" height="40" as="geometry" />
        </mxCell>
        <mxCell id="pzdc9UByRqvHz5rYgVLP-21" value="nombre" style="ellipse;whiteSpace=wrap;html=1;sketch=1;hachureGap=4;jiggle=2;curveFitting=1;fontFamily=Architects Daughter;fontSource=https%3A%2F%2Ffonts.googleapis.com%2Fcss%3Ffamily%3DArchitects%2BDaughter;" vertex="1" parent="1">
          <mxGeometry x="480" y="230" width="70" height="40" as="geometry" />
        </mxCell>
        <mxCell id="pzdc9UByRqvHz5rYgVLP-23" value="" style="endArrow=none;html=1;rounded=0;sketch=1;hachureGap=4;jiggle=2;curveFitting=1;fontFamily=Architects Daughter;fontSource=https%3A%2F%2Ffonts.googleapis.com%2Fcss%3Ffamily%3DArchitects%2BDaughter;entryX=0.406;entryY=1.073;entryDx=0;entryDy=0;entryPerimeter=0;exitX=0.5;exitY=0;exitDx=0;exitDy=0;" edge="1" parent="1" source="pzdc9UByRqvHz5rYgVLP-18" target="pzdc9UByRqvHz5rYgVLP-21">
          <mxGeometry width="50" height="50" relative="1" as="geometry">
            <mxPoint x="400" y="360" as="sourcePoint" />
            <mxPoint x="450" y="310" as="targetPoint" />
          </mxGeometry>
        </mxCell>
        <mxCell id="pzdc9UByRqvHz5rYgVLP-24" value="" style="endArrow=none;html=1;rounded=0;sketch=1;hachureGap=4;jiggle=2;curveFitting=1;fontFamily=Architects Daughter;fontSource=https%3A%2F%2Ffonts.googleapis.com%2Fcss%3Ffamily%3DArchitects%2BDaughter;entryX=0.429;entryY=1;entryDx=0;entryDy=0;exitX=0.5;exitY=0;exitDx=0;exitDy=0;entryPerimeter=0;" edge="1" parent="1" source="pzdc9UByRqvHz5rYgVLP-18" target="pzdc9UByRqvHz5rYgVLP-20">
          <mxGeometry width="50" height="50" relative="1" as="geometry">
            <mxPoint x="440" y="377" as="sourcePoint" />
            <mxPoint x="508" y="310" as="targetPoint" />
          </mxGeometry>
        </mxCell>
        <mxCell id="pzdc9UByRqvHz5rYgVLP-25" value="" style="endArrow=none;html=1;rounded=0;sketch=1;hachureGap=4;jiggle=2;curveFitting=1;fontFamily=Architects Daughter;fontSource=https%3A%2F%2Ffonts.googleapis.com%2Fcss%3Ffamily%3DArchitects%2BDaughter;entryX=0.5;entryY=1;entryDx=0;entryDy=0;" edge="1" parent="1" source="pzdc9UByRqvHz5rYgVLP-18" target="pzdc9UByRqvHz5rYgVLP-19">
          <mxGeometry width="50" height="50" relative="1" as="geometry">
            <mxPoint x="420" y="380" as="sourcePoint" />
            <mxPoint x="420" y="310" as="targetPoint" />
          </mxGeometry>
        </mxCell>
        <mxCell id="pzdc9UByRqvHz5rYgVLP-44" value="" style="edgeStyle=orthogonalEdgeStyle;rounded=0;sketch=1;hachureGap=4;jiggle=2;curveFitting=1;orthogonalLoop=1;jettySize=auto;html=1;fontFamily=Architects Daughter;fontSource=https%3A%2F%2Ffonts.googleapis.com%2Fcss%3Ffamily%3DArchitects%2BDaughter;entryX=1;entryY=0.5;entryDx=0;entryDy=0;" edge="1" parent="1" source="pzdc9UByRqvHz5rYgVLP-26" target="pzdc9UByRqvHz5rYgVLP-43">
          <mxGeometry relative="1" as="geometry">
            <Array as="points">
              <mxPoint x="-350" y="630" />
              <mxPoint x="-350" y="670" />
            </Array>
          </mxGeometry>
        </mxCell>
        <mxCell id="pzdc9UByRqvHz5rYgVLP-86" value="0 : N&amp;nbsp;" style="edgeLabel;html=1;align=center;verticalAlign=middle;resizable=0;points=[];sketch=1;hachureGap=4;jiggle=2;curveFitting=1;fontFamily=Architects Daughter;fontSource=https%3A%2F%2Ffonts.googleapis.com%2Fcss%3Ffamily%3DArchitects%2BDaughter;" vertex="1" connectable="0" parent="pzdc9UByRqvHz5rYgVLP-44">
          <mxGeometry x="0.2587" y="-2" relative="1" as="geometry">
            <mxPoint as="offset" />
          </mxGeometry>
        </mxCell>
        <mxCell id="pzdc9UByRqvHz5rYgVLP-54" value="" style="edgeStyle=orthogonalEdgeStyle;rounded=0;sketch=1;hachureGap=4;jiggle=2;curveFitting=1;orthogonalLoop=1;jettySize=auto;html=1;fontFamily=Architects Daughter;fontSource=https%3A%2F%2Ffonts.googleapis.com%2Fcss%3Ffamily%3DArchitects%2BDaughter;" edge="1" parent="1" source="pzdc9UByRqvHz5rYgVLP-26" target="pzdc9UByRqvHz5rYgVLP-53">
          <mxGeometry relative="1" as="geometry">
            <Array as="points">
              <mxPoint x="-350" y="610" />
              <mxPoint x="-350" y="580" />
            </Array>
          </mxGeometry>
        </mxCell>
        <mxCell id="pzdc9UByRqvHz5rYgVLP-89" value="&amp;nbsp;1 : n&amp;nbsp;" style="edgeLabel;html=1;align=center;verticalAlign=middle;resizable=0;points=[];sketch=1;hachureGap=4;jiggle=2;curveFitting=1;fontFamily=Architects Daughter;fontSource=https%3A%2F%2Ffonts.googleapis.com%2Fcss%3Ffamily%3DArchitects%2BDaughter;" vertex="1" connectable="0" parent="pzdc9UByRqvHz5rYgVLP-54">
          <mxGeometry x="0.1611" y="-2" relative="1" as="geometry">
            <mxPoint as="offset" />
          </mxGeometry>
        </mxCell>
        <mxCell id="pzdc9UByRqvHz5rYgVLP-26" value="Delincuente" style="rounded=0;whiteSpace=wrap;html=1;sketch=1;hachureGap=4;jiggle=2;curveFitting=1;fontFamily=Architects Daughter;fontSource=https%3A%2F%2Ffonts.googleapis.com%2Fcss%3Ffamily%3DArchitects%2BDaughter;" vertex="1" parent="1">
          <mxGeometry x="-320" y="580" width="120" height="60" as="geometry" />
        </mxCell>
        <mxCell id="pzdc9UByRqvHz5rYgVLP-28" value="DNI" style="ellipse;whiteSpace=wrap;html=1;sketch=1;hachureGap=4;jiggle=2;curveFitting=1;fontFamily=Architects Daughter;fontSource=https%3A%2F%2Ffonts.googleapis.com%2Fcss%3Ffamily%3DArchitects%2BDaughter;fillColor=#60a917;fontColor=#ffffff;strokeColor=#2D7600;" vertex="1" parent="1">
          <mxGeometry x="-350" y="830" width="80" height="40" as="geometry" />
        </mxCell>
        <mxCell id="pzdc9UByRqvHz5rYgVLP-29" value="nombre" style="ellipse;whiteSpace=wrap;html=1;sketch=1;hachureGap=4;jiggle=2;curveFitting=1;fontFamily=Architects Daughter;fontSource=https%3A%2F%2Ffonts.googleapis.com%2Fcss%3Ffamily%3DArchitects%2BDaughter;" vertex="1" parent="1">
          <mxGeometry x="-270" y="830" width="70" height="40" as="geometry" />
        </mxCell>
        <mxCell id="pzdc9UByRqvHz5rYgVLP-30" value="telefono" style="ellipse;whiteSpace=wrap;html=1;sketch=1;hachureGap=4;jiggle=2;curveFitting=1;fontFamily=Architects Daughter;fontSource=https%3A%2F%2Ffonts.googleapis.com%2Fcss%3Ffamily%3DArchitects%2BDaughter;" vertex="1" parent="1">
          <mxGeometry x="-200" y="830" width="70" height="40" as="geometry" />
        </mxCell>
        <mxCell id="pzdc9UByRqvHz5rYgVLP-32" value="" style="endArrow=none;html=1;rounded=0;sketch=1;hachureGap=4;jiggle=2;curveFitting=1;fontFamily=Architects Daughter;fontSource=https%3A%2F%2Ffonts.googleapis.com%2Fcss%3Ffamily%3DArchitects%2BDaughter;exitX=0.407;exitY=0.105;exitDx=0;exitDy=0;entryX=0.5;entryY=1;entryDx=0;entryDy=0;exitPerimeter=0;" edge="1" parent="1" source="pzdc9UByRqvHz5rYgVLP-30" target="pzdc9UByRqvHz5rYgVLP-26">
          <mxGeometry width="50" height="50" relative="1" as="geometry">
            <mxPoint x="55" y="490" as="sourcePoint" />
            <mxPoint x="115" y="627" as="targetPoint" />
          </mxGeometry>
        </mxCell>
        <mxCell id="pzdc9UByRqvHz5rYgVLP-33" value="" style="endArrow=none;html=1;rounded=0;sketch=1;hachureGap=4;jiggle=2;curveFitting=1;fontFamily=Architects Daughter;fontSource=https%3A%2F%2Ffonts.googleapis.com%2Fcss%3Ffamily%3DArchitects%2BDaughter;entryX=0.5;entryY=1;entryDx=0;entryDy=0;" edge="1" parent="1" target="pzdc9UByRqvHz5rYgVLP-26">
          <mxGeometry width="50" height="50" relative="1" as="geometry">
            <mxPoint x="-240" y="830" as="sourcePoint" />
            <mxPoint x="-235" y="570" as="targetPoint" />
          </mxGeometry>
        </mxCell>
        <mxCell id="pzdc9UByRqvHz5rYgVLP-34" value="" style="endArrow=none;html=1;rounded=0;sketch=1;hachureGap=4;jiggle=2;curveFitting=1;fontFamily=Architects Daughter;fontSource=https%3A%2F%2Ffonts.googleapis.com%2Fcss%3Ffamily%3DArchitects%2BDaughter;exitX=0.5;exitY=0;exitDx=0;exitDy=0;" edge="1" parent="1" source="pzdc9UByRqvHz5rYgVLP-28">
          <mxGeometry width="50" height="50" relative="1" as="geometry">
            <mxPoint x="-235" y="510" as="sourcePoint" />
            <mxPoint x="-270" y="640" as="targetPoint" />
          </mxGeometry>
        </mxCell>
        <mxCell id="pzdc9UByRqvHz5rYgVLP-62" style="edgeStyle=orthogonalEdgeStyle;rounded=0;sketch=1;hachureGap=4;jiggle=2;curveFitting=1;orthogonalLoop=1;jettySize=auto;html=1;entryX=0.5;entryY=0;entryDx=0;entryDy=0;fontFamily=Architects Daughter;fontSource=https%3A%2F%2Ffonts.googleapis.com%2Fcss%3Ffamily%3DArchitects%2BDaughter;" edge="1" parent="1" source="pzdc9UByRqvHz5rYgVLP-35" target="pzdc9UByRqvHz5rYgVLP-26">
          <mxGeometry relative="1" as="geometry" />
        </mxCell>
        <mxCell id="pzdc9UByRqvHz5rYgVLP-82" value="1 : n" style="edgeLabel;html=1;align=center;verticalAlign=middle;resizable=0;points=[];sketch=1;hachureGap=4;jiggle=2;curveFitting=1;fontFamily=Architects Daughter;fontSource=https%3A%2F%2Ffonts.googleapis.com%2Fcss%3Ffamily%3DArchitects%2BDaughter;" vertex="1" connectable="0" parent="pzdc9UByRqvHz5rYgVLP-62">
          <mxGeometry x="-0.1257" relative="1" as="geometry">
            <mxPoint as="offset" />
          </mxGeometry>
        </mxCell>
        <mxCell id="pzdc9UByRqvHz5rYgVLP-35" value="arresta" style="rhombus;whiteSpace=wrap;html=1;fontFamily=Architects Daughter;rounded=0;sketch=1;hachureGap=4;jiggle=2;curveFitting=1;fontSource=https%3A%2F%2Ffonts.googleapis.com%2Fcss%3Ffamily%3DArchitects%2BDaughter;" vertex="1" parent="1">
          <mxGeometry x="-300" y="350" width="80" height="80" as="geometry" />
        </mxCell>
        <mxCell id="pzdc9UByRqvHz5rYgVLP-38" value="Calabozo" style="rounded=0;whiteSpace=wrap;html=1;sketch=1;hachureGap=4;jiggle=2;curveFitting=1;fontFamily=Architects Daughter;fontSource=https%3A%2F%2Ffonts.googleapis.com%2Fcss%3Ffamily%3DArchitects%2BDaughter;" vertex="1" parent="1">
          <mxGeometry x="-790" y="600" width="120" height="60" as="geometry" />
        </mxCell>
        <mxCell id="pzdc9UByRqvHz5rYgVLP-39" value="Codigo" style="ellipse;whiteSpace=wrap;html=1;sketch=1;hachureGap=4;jiggle=2;curveFitting=1;fontFamily=Architects Daughter;fontSource=https%3A%2F%2Ffonts.googleapis.com%2Fcss%3Ffamily%3DArchitects%2BDaughter;fillColor=#60a917;fontColor=#ffffff;strokeColor=#2D7600;" vertex="1" parent="1">
          <mxGeometry x="-800" y="760" width="80" height="40" as="geometry" />
        </mxCell>
        <mxCell id="pzdc9UByRqvHz5rYgVLP-40" value="Ubicacion" style="ellipse;whiteSpace=wrap;html=1;sketch=1;hachureGap=4;jiggle=2;curveFitting=1;fontFamily=Architects Daughter;fontSource=https%3A%2F%2Ffonts.googleapis.com%2Fcss%3Ffamily%3DArchitects%2BDaughter;" vertex="1" parent="1">
          <mxGeometry x="-720" y="760" width="70" height="40" as="geometry" />
        </mxCell>
        <mxCell id="pzdc9UByRqvHz5rYgVLP-41" value="" style="endArrow=none;html=1;rounded=0;sketch=1;hachureGap=4;jiggle=2;curveFitting=1;fontFamily=Architects Daughter;fontSource=https%3A%2F%2Ffonts.googleapis.com%2Fcss%3Ffamily%3DArchitects%2BDaughter;exitX=0.445;exitY=0.084;exitDx=0;exitDy=0;entryX=0.5;entryY=1;entryDx=0;entryDy=0;exitPerimeter=0;" edge="1" parent="1" source="pzdc9UByRqvHz5rYgVLP-40" target="pzdc9UByRqvHz5rYgVLP-38">
          <mxGeometry width="50" height="50" relative="1" as="geometry">
            <mxPoint x="-480" y="490" as="sourcePoint" />
            <mxPoint x="-410" y="610" as="targetPoint" />
          </mxGeometry>
        </mxCell>
        <mxCell id="pzdc9UByRqvHz5rYgVLP-42" value="" style="endArrow=none;html=1;rounded=0;sketch=1;hachureGap=4;jiggle=2;curveFitting=1;fontFamily=Architects Daughter;fontSource=https%3A%2F%2Ffonts.googleapis.com%2Fcss%3Ffamily%3DArchitects%2BDaughter;exitX=0.5;exitY=0;exitDx=0;exitDy=0;" edge="1" parent="1" source="pzdc9UByRqvHz5rYgVLP-39">
          <mxGeometry width="50" height="50" relative="1" as="geometry">
            <mxPoint x="-615" y="530" as="sourcePoint" />
            <mxPoint x="-740" y="660" as="targetPoint" />
          </mxGeometry>
        </mxCell>
        <mxCell id="pzdc9UByRqvHz5rYgVLP-45" style="edgeStyle=orthogonalEdgeStyle;rounded=0;sketch=1;hachureGap=4;jiggle=2;curveFitting=1;orthogonalLoop=1;jettySize=auto;html=1;entryX=1;entryY=0.5;entryDx=0;entryDy=0;fontFamily=Architects Daughter;fontSource=https%3A%2F%2Ffonts.googleapis.com%2Fcss%3Ffamily%3DArchitects%2BDaughter;" edge="1" parent="1" source="pzdc9UByRqvHz5rYgVLP-43" target="pzdc9UByRqvHz5rYgVLP-38">
          <mxGeometry relative="1" as="geometry" />
        </mxCell>
        <mxCell id="pzdc9UByRqvHz5rYgVLP-85" value="1 : 1" style="edgeLabel;html=1;align=center;verticalAlign=middle;resizable=0;points=[];sketch=1;hachureGap=4;jiggle=2;curveFitting=1;fontFamily=Architects Daughter;fontSource=https%3A%2F%2Ffonts.googleapis.com%2Fcss%3Ffamily%3DArchitects%2BDaughter;" vertex="1" connectable="0" parent="pzdc9UByRqvHz5rYgVLP-45">
          <mxGeometry x="-0.3527" y="-1" relative="1" as="geometry">
            <mxPoint as="offset" />
          </mxGeometry>
        </mxCell>
        <mxCell id="pzdc9UByRqvHz5rYgVLP-43" value="encerrado" style="rhombus;whiteSpace=wrap;html=1;fontFamily=Architects Daughter;rounded=0;sketch=1;hachureGap=4;jiggle=2;curveFitting=1;fontSource=https%3A%2F%2Ffonts.googleapis.com%2Fcss%3Ffamily%3DArchitects%2BDaughter;" vertex="1" parent="1">
          <mxGeometry x="-540" y="630" width="80" height="80" as="geometry" />
        </mxCell>
        <mxCell id="pzdc9UByRqvHz5rYgVLP-48" style="edgeStyle=orthogonalEdgeStyle;rounded=0;sketch=1;hachureGap=4;jiggle=2;curveFitting=1;orthogonalLoop=1;jettySize=auto;html=1;entryX=0.5;entryY=1;entryDx=0;entryDy=0;fontFamily=Architects Daughter;fontSource=https%3A%2F%2Ffonts.googleapis.com%2Fcss%3Ffamily%3DArchitects%2BDaughter;" edge="1" parent="1" source="pzdc9UByRqvHz5rYgVLP-46" target="pzdc9UByRqvHz5rYgVLP-2">
          <mxGeometry relative="1" as="geometry" />
        </mxCell>
        <mxCell id="pzdc9UByRqvHz5rYgVLP-78" value="&amp;nbsp;1 : n&amp;nbsp;" style="edgeLabel;html=1;align=center;verticalAlign=middle;resizable=0;points=[];sketch=1;hachureGap=4;jiggle=2;curveFitting=1;fontFamily=Architects Daughter;fontSource=https%3A%2F%2Ffonts.googleapis.com%2Fcss%3Ffamily%3DArchitects%2BDaughter;" vertex="1" connectable="0" parent="pzdc9UByRqvHz5rYgVLP-48">
          <mxGeometry x="-0.4229" y="-2" relative="1" as="geometry">
            <mxPoint as="offset" />
          </mxGeometry>
        </mxCell>
        <mxCell id="pzdc9UByRqvHz5rYgVLP-46" value="lidera" style="rhombus;whiteSpace=wrap;html=1;fontFamily=Architects Daughter;rounded=0;sketch=1;hachureGap=4;jiggle=2;curveFitting=1;fontSource=https%3A%2F%2Ffonts.googleapis.com%2Fcss%3Ffamily%3DArchitects%2BDaughter;" vertex="1" parent="1">
          <mxGeometry x="-10" y="430" width="80" height="80" as="geometry" />
        </mxCell>
        <mxCell id="pzdc9UByRqvHz5rYgVLP-49" value="caso" style="rounded=0;whiteSpace=wrap;html=1;sketch=1;hachureGap=4;jiggle=2;curveFitting=1;fontFamily=Architects Daughter;fontSource=https%3A%2F%2Ffonts.googleapis.com%2Fcss%3Ffamily%3DArchitects%2BDaughter;" vertex="1" parent="1">
          <mxGeometry x="-790" y="485" width="120" height="60" as="geometry" />
        </mxCell>
        <mxCell id="pzdc9UByRqvHz5rYgVLP-55" style="edgeStyle=orthogonalEdgeStyle;rounded=0;sketch=1;hachureGap=4;jiggle=2;curveFitting=1;orthogonalLoop=1;jettySize=auto;html=1;entryX=1;entryY=0.5;entryDx=0;entryDy=0;fontFamily=Architects Daughter;fontSource=https%3A%2F%2Ffonts.googleapis.com%2Fcss%3Ffamily%3DArchitects%2BDaughter;" edge="1" parent="1" source="pzdc9UByRqvHz5rYgVLP-53" target="pzdc9UByRqvHz5rYgVLP-49">
          <mxGeometry relative="1" as="geometry" />
        </mxCell>
        <mxCell id="pzdc9UByRqvHz5rYgVLP-88" value="&amp;nbsp;1 : n&amp;nbsp;" style="edgeLabel;html=1;align=center;verticalAlign=middle;resizable=0;points=[];sketch=1;hachureGap=4;jiggle=2;curveFitting=1;fontFamily=Architects Daughter;fontSource=https%3A%2F%2Ffonts.googleapis.com%2Fcss%3Ffamily%3DArchitects%2BDaughter;" vertex="1" connectable="0" parent="pzdc9UByRqvHz5rYgVLP-55">
          <mxGeometry x="-0.3863" y="-3" relative="1" as="geometry">
            <mxPoint as="offset" />
          </mxGeometry>
        </mxCell>
        <mxCell id="pzdc9UByRqvHz5rYgVLP-53" value="involucrado" style="rhombus;whiteSpace=wrap;html=1;fontFamily=Architects Daughter;rounded=0;sketch=1;hachureGap=4;jiggle=2;curveFitting=1;fontSource=https%3A%2F%2Ffonts.googleapis.com%2Fcss%3Ffamily%3DArchitects%2BDaughter;" vertex="1" parent="1">
          <mxGeometry x="-540" y="540" width="80" height="80" as="geometry" />
        </mxCell>
        <mxCell id="pzdc9UByRqvHz5rYgVLP-56" value="Codigo" style="ellipse;whiteSpace=wrap;html=1;sketch=1;hachureGap=4;jiggle=2;curveFitting=1;fontFamily=Architects Daughter;fontSource=https%3A%2F%2Ffonts.googleapis.com%2Fcss%3Ffamily%3DArchitects%2BDaughter;fillColor=#60a917;fontColor=#ffffff;strokeColor=#2D7600;" vertex="1" parent="1">
          <mxGeometry x="-800" y="400" width="80" height="40" as="geometry" />
        </mxCell>
        <mxCell id="pzdc9UByRqvHz5rYgVLP-57" value="juzgado" style="ellipse;whiteSpace=wrap;html=1;sketch=1;hachureGap=4;jiggle=2;curveFitting=1;fontFamily=Architects Daughter;fontSource=https%3A%2F%2Ffonts.googleapis.com%2Fcss%3Ffamily%3DArchitects%2BDaughter;" vertex="1" parent="1">
          <mxGeometry x="-720" y="400" width="70" height="40" as="geometry" />
        </mxCell>
        <mxCell id="pzdc9UByRqvHz5rYgVLP-59" value="" style="endArrow=none;html=1;rounded=0;sketch=1;hachureGap=4;jiggle=2;curveFitting=1;fontFamily=Architects Daughter;fontSource=https%3A%2F%2Ffonts.googleapis.com%2Fcss%3Ffamily%3DArchitects%2BDaughter;entryX=0.443;entryY=0.957;entryDx=0;entryDy=0;entryPerimeter=0;exitX=0.562;exitY=-0.052;exitDx=0;exitDy=0;exitPerimeter=0;" edge="1" parent="1" source="pzdc9UByRqvHz5rYgVLP-49" target="pzdc9UByRqvHz5rYgVLP-57">
          <mxGeometry width="50" height="50" relative="1" as="geometry">
            <mxPoint x="-750" y="510" as="sourcePoint" />
            <mxPoint x="-700" y="460" as="targetPoint" />
          </mxGeometry>
        </mxCell>
        <mxCell id="pzdc9UByRqvHz5rYgVLP-60" value="" style="endArrow=none;html=1;rounded=0;sketch=1;hachureGap=4;jiggle=2;curveFitting=1;fontFamily=Architects Daughter;fontSource=https%3A%2F%2Ffonts.googleapis.com%2Fcss%3Ffamily%3DArchitects%2BDaughter;entryX=0.5;entryY=1;entryDx=0;entryDy=0;exitX=0.467;exitY=0.007;exitDx=0;exitDy=0;exitPerimeter=0;" edge="1" parent="1" source="pzdc9UByRqvHz5rYgVLP-49" target="pzdc9UByRqvHz5rYgVLP-56">
          <mxGeometry width="50" height="50" relative="1" as="geometry">
            <mxPoint x="-730" y="539" as="sourcePoint" />
            <mxPoint x="-696" y="470" as="targetPoint" />
          </mxGeometry>
        </mxCell>
        <mxCell id="pzdc9UByRqvHz5rYgVLP-65" value="" style="edgeStyle=orthogonalEdgeStyle;rounded=0;sketch=1;hachureGap=4;jiggle=2;curveFitting=1;orthogonalLoop=1;jettySize=auto;html=1;fontFamily=Architects Daughter;fontSource=https%3A%2F%2Ffonts.googleapis.com%2Fcss%3Ffamily%3DArchitects%2BDaughter;" edge="1" parent="1" source="pzdc9UByRqvHz5rYgVLP-63" target="pzdc9UByRqvHz5rYgVLP-18">
          <mxGeometry relative="1" as="geometry" />
        </mxCell>
        <mxCell id="pzdc9UByRqvHz5rYgVLP-79" value="&amp;nbsp;1 : n&amp;nbsp;" style="edgeLabel;html=1;align=center;verticalAlign=middle;resizable=0;points=[];sketch=1;hachureGap=4;jiggle=2;curveFitting=1;fontFamily=Architects Daughter;fontSource=https%3A%2F%2Ffonts.googleapis.com%2Fcss%3Ffamily%3DArchitects%2BDaughter;" vertex="1" connectable="0" parent="pzdc9UByRqvHz5rYgVLP-65">
          <mxGeometry x="-0.0305" y="2" relative="1" as="geometry">
            <mxPoint as="offset" />
          </mxGeometry>
        </mxCell>
        <mxCell id="pzdc9UByRqvHz5rYgVLP-67" style="edgeStyle=orthogonalEdgeStyle;rounded=0;sketch=1;hachureGap=4;jiggle=2;curveFitting=1;orthogonalLoop=1;jettySize=auto;html=1;entryX=0.5;entryY=1;entryDx=0;entryDy=0;fontFamily=Architects Daughter;fontSource=https%3A%2F%2Ffonts.googleapis.com%2Fcss%3Ffamily%3DArchitects%2BDaughter;" edge="1" parent="1" source="pzdc9UByRqvHz5rYgVLP-63" target="pzdc9UByRqvHz5rYgVLP-66">
          <mxGeometry relative="1" as="geometry" />
        </mxCell>
        <mxCell id="pzdc9UByRqvHz5rYgVLP-63" value="utiliza" style="rhombus;whiteSpace=wrap;html=1;fontFamily=Architects Daughter;rounded=0;sketch=1;hachureGap=4;jiggle=2;curveFitting=1;fontSource=https%3A%2F%2Ffonts.googleapis.com%2Fcss%3Ffamily%3DArchitects%2BDaughter;" vertex="1" parent="1">
          <mxGeometry x="160" y="330" width="80" height="80" as="geometry" />
        </mxCell>
        <mxCell id="pzdc9UByRqvHz5rYgVLP-66" value="grado" style="ellipse;whiteSpace=wrap;html=1;sketch=1;hachureGap=4;jiggle=2;curveFitting=1;fontFamily=Architects Daughter;fontSource=https%3A%2F%2Ffonts.googleapis.com%2Fcss%3Ffamily%3DArchitects%2BDaughter;" vertex="1" parent="1">
          <mxGeometry x="160" y="250" width="80" height="40" as="geometry" />
        </mxCell>
        <mxCell id="pzdc9UByRqvHz5rYgVLP-72" style="edgeStyle=orthogonalEdgeStyle;rounded=0;sketch=1;hachureGap=4;jiggle=2;curveFitting=1;orthogonalLoop=1;jettySize=auto;html=1;entryX=1;entryY=0.25;entryDx=0;entryDy=0;fontFamily=Architects Daughter;fontSource=https%3A%2F%2Ffonts.googleapis.com%2Fcss%3Ffamily%3DArchitects%2BDaughter;" edge="1" parent="1" source="pzdc9UByRqvHz5rYgVLP-70" target="pzdc9UByRqvHz5rYgVLP-49">
          <mxGeometry relative="1" as="geometry" />
        </mxCell>
        <mxCell id="pzdc9UByRqvHz5rYgVLP-91" value="&amp;nbsp;0 : n&amp;nbsp;" style="edgeLabel;html=1;align=center;verticalAlign=middle;resizable=0;points=[];sketch=1;hachureGap=4;jiggle=2;curveFitting=1;fontFamily=Architects Daughter;fontSource=https%3A%2F%2Ffonts.googleapis.com%2Fcss%3Ffamily%3DArchitects%2BDaughter;" vertex="1" connectable="0" parent="pzdc9UByRqvHz5rYgVLP-72">
          <mxGeometry x="-0.6051" y="2" relative="1" as="geometry">
            <mxPoint as="offset" />
          </mxGeometry>
        </mxCell>
        <mxCell id="pzdc9UByRqvHz5rYgVLP-70" value="investiga" style="rhombus;whiteSpace=wrap;html=1;fontFamily=Architects Daughter;rounded=0;sketch=1;hachureGap=4;jiggle=2;curveFitting=1;fontSource=https%3A%2F%2Ffonts.googleapis.com%2Fcss%3Ffamily%3DArchitects%2BDaughter;" vertex="1" parent="1">
          <mxGeometry x="-540" y="420" width="80" height="80" as="geometry" />
        </mxCell>
        <mxCell id="pzdc9UByRqvHz5rYgVLP-74" value="esta chingadera se llama reflexiba" style="text;html=1;align=center;verticalAlign=middle;resizable=0;points=[];autosize=1;strokeColor=none;fillColor=none;fontFamily=Architects Daughter;fontSource=https%3A%2F%2Ffonts.googleapis.com%2Fcss%3Ffamily%3DArchitects%2BDaughter;" vertex="1" parent="1">
          <mxGeometry x="-100" y="520" width="210" height="30" as="geometry" />
        </mxCell>
        <mxCell id="pzdc9UByRqvHz5rYgVLP-77" value="1 : N" style="text;html=1;align=center;verticalAlign=middle;resizable=0;points=[];autosize=1;strokeColor=none;fillColor=none;fontFamily=Architects Daughter;fontSource=https%3A%2F%2Ffonts.googleapis.com%2Fcss%3Ffamily%3DArchitects%2BDaughter;" vertex="1" parent="1">
          <mxGeometry x="70" y="455" width="40" height="30" as="geometry" />
        </mxCell>
        <mxCell id="pzdc9UByRqvHz5rYgVLP-81" value="1 : n" style="text;html=1;align=center;verticalAlign=middle;resizable=0;points=[];autosize=1;strokeColor=none;fillColor=none;fontFamily=Architects Daughter;fontSource=https%3A%2F%2Ffonts.googleapis.com%2Fcss%3Ffamily%3DArchitects%2BDaughter;" vertex="1" parent="1">
          <mxGeometry x="180" y="405" width="40" height="30" as="geometry" />
        </mxCell>
        <mxCell id="pzdc9UByRqvHz5rYgVLP-84" value="n : n&amp;nbsp;" style="text;html=1;align=center;verticalAlign=middle;resizable=0;points=[];autosize=1;strokeColor=none;fillColor=none;fontFamily=Architects Daughter;fontSource=https%3A%2F%2Ffonts.googleapis.com%2Fcss%3Ffamily%3DArchitects%2BDaughter;" vertex="1" parent="1">
          <mxGeometry x="-350" y="375" width="50" height="30" as="geometry" />
        </mxCell>
        <mxCell id="pzdc9UByRqvHz5rYgVLP-87" value="1 : n" style="text;html=1;align=center;verticalAlign=middle;resizable=0;points=[];autosize=1;strokeColor=none;fillColor=none;fontFamily=Architects Daughter;fontSource=https%3A%2F%2Ffonts.googleapis.com%2Fcss%3Ffamily%3DArchitects%2BDaughter;" vertex="1" parent="1">
          <mxGeometry x="-520" y="708" width="40" height="30" as="geometry" />
        </mxCell>
        <mxCell id="pzdc9UByRqvHz5rYgVLP-90" value="n : n&amp;nbsp;" style="text;html=1;align=center;verticalAlign=middle;resizable=0;points=[];autosize=1;strokeColor=none;fillColor=none;fontFamily=Architects Daughter;fontSource=https%3A%2F%2Ffonts.googleapis.com%2Fcss%3Ffamily%3DArchitects%2BDaughter;" vertex="1" parent="1">
          <mxGeometry x="-490" y="540" width="50" height="30" as="geometry" />
        </mxCell>
        <mxCell id="pzdc9UByRqvHz5rYgVLP-93" value="n : m" style="text;html=1;align=center;verticalAlign=middle;resizable=0;points=[];autosize=1;strokeColor=none;fillColor=none;fontFamily=Architects Daughter;fontSource=https%3A%2F%2Ffonts.googleapis.com%2Fcss%3Ffamily%3DArchitects%2BDaughter;" vertex="1" parent="1">
          <mxGeometry x="-460" y="445" width="50" height="30" as="geometry" />
        </mxCell>
        <mxCell id="pzdc9UByRqvHz5rYgVLP-96" value="cargo" style="ellipse;whiteSpace=wrap;html=1;sketch=1;hachureGap=4;jiggle=2;curveFitting=1;fontFamily=Architects Daughter;fontSource=https%3A%2F%2Ffonts.googleapis.com%2Fcss%3Ffamily%3DArchitects%2BDaughter;" vertex="1" parent="1">
          <mxGeometry x="-570" y="520" width="40" height="30" as="geometry" />
        </mxCell>
        <mxCell id="pzdc9UByRqvHz5rYgVLP-97" value="" style="endArrow=none;html=1;rounded=0;sketch=1;hachureGap=4;jiggle=2;curveFitting=1;fontFamily=Architects Daughter;fontSource=https%3A%2F%2Ffonts.googleapis.com%2Fcss%3Ffamily%3DArchitects%2BDaughter;exitX=0.314;exitY=0.202;exitDx=0;exitDy=0;exitPerimeter=0;" edge="1" parent="1" source="pzdc9UByRqvHz5rYgVLP-53" target="pzdc9UByRqvHz5rYgVLP-96">
          <mxGeometry width="50" height="50" relative="1" as="geometry">
            <mxPoint x="-700" y="539" as="sourcePoint" />
            <mxPoint x="-666" y="470" as="targetPoint" />
          </mxGeometry>
        </mxCell>
      </root>
    </mxGraphModel>
  </diagram>
</mxfile>
